#!OML:ASF E:\Style4\Style4.ASF
:FULLY-SPECIFIED
:DEGREES
3504
root 0.255963 17.4753 -1.97902 3.59651 -0.923405 2.47674
lowerback 12.3324 2.77738 -1.12268
upperback 4.57034 3.53265 0.0158474
thorax -2.18582 1.74763 0.153679
lowerneck -3.14192 -5.26004 -5.58334
upperneck 2.10971 -6.90655 4.32245
head 1.58184 -3.42756 2.15685
rclavicle 3.61788e-014 -8.34896e-015
rhumerus 45.8759 -3.94767 -70.2866
rradius 39.0523
rwrist -67.8266
rhand -3.93501 9.62094
rfingers 7.12502
rthumb 21.8164 -19.1694
lclavicle 3.61788e-014 -8.34896e-015
lhumerus 46.4196 -12.0851 64.356
lradius 50.1813
lwrist 68.2743
lhand 2.98581 31.3504
lfingers 7.12502
lthumb 28.447 59.2079
rfemur -24.8903 0.249142 14.8172
rtibia 41.7347
rfoot -18.8535 -11.2108
rtoes -13.1867
lfemur -23.503 0.725161 -22.2568
ltibia 39.8195
lfoot -19.4397 6.51959
ltoes -12.0045
3505
root 0.254008 17.4661 -1.98302 3.58831 -0.951167 2.47847
lowerback 12.4023 2.77044 -1.14169
upperback 4.64508 3.51982 0.00291084
thorax -2.14582 1.74081 0.151593
lowerneck -3.14111 -5.23496 -5.54086
upperneck 2.10947 -6.87423 4.30158
head 1.57706 -3.4114 2.14356
rclavicle 2.18663e-015 3.97569e-016
rhumerus 45.6592 -3.89777 -70.4952
rradius 38.3839
rwrist -67.4482
rhand -4.22636 9.78927
rfingers 7.12502
rthumb 21.5366 -19.0333
lclavicle 2.18663e-015 3.97569e-016
lhumerus 46.1742 -12.3453 64.2018
lradius 49.6232
lwrist 67.9132
lhand 2.82414 32.281
lfingers 7.12502
lthumb 28.2925 60.1642
rfemur -25.0132 0.259813 14.8236
rtibia 41.9326
rfoot -18.9086 -11.1929
rtoes -13.3167
lfemur -23.632 0.753882 -22.2494
ltibia 40.0486
lfoot -19.5275 6.49399
ltoes -11.932
3506
root 0.253169 17.4564 -1.98805 3.5867 -0.979291 2.53668
lowerback 12.4827 2.76472 -1.22521
upperback 4.72108 3.50097 -0.00614009
thorax -2.11399 1.73048 0.18995
lowerneck -3.06583 -5.21119 -5.57908
upperneck 2.02668 -6.8444 4.34968
head 1.53928 -3.39674 2.16976
rclavicle -7.15625e-015 -6.36111e-015
rhumerus 45.3907 -3.84511 -70.6916
rradius 37.8971
rwrist -67.1111
rhand -4.45518 9.74473
rfingers 7.12502
rthumb 21.3168 -19.1029
lclavicle -7.15625e-015 -6.36111e-015
lhumerus 45.8262 -12.5224 64.2311
lradius 49.2609
lwrist 67.6637
lhand 2.46382 32.6241
lfingers 7.12502
lthumb 27.9481 60.5639
rfemur -25.1565 0.264339 14.7595
rtibia 42.1459
rfoot -19.0497 -11.1321
rtoes -13.1898
lfemur -23.7565 0.774784 -22.3111
ltibia 40.2496
lfoot -19.6535 6.50234
ltoes -11.9394
3507
root 0.253305 17.4481 -1.99072 3.57015 -1.0158 2.44707
lowerback 12.5469 2.77293 -1.10811
upperback 4.81823 3.52485 0.00185274
thorax -2.04125 1.74264 0.129297
lowerneck -3.00154 -5.21718 -5.6007
upperneck 1.95096 -6.85471 4.40045
head 1.50729 -3.40187 2.19221
rclavicle 5.70512e-014 -2.0276e-014
rhumerus 45.102 -3.92469 -70.9151
rradius 37.4844
rwrist -66.7479
rhand -4.31061 9.55886
rfingers 7.12502
rthumb 21.4557 -19.273
lclavicle 5.70512e-014 -2.0276e-014
lhumerus 45.5193 -12.7631 64.2057
lradius 49.0594
lwrist 67.5671
lhand 2.14608 32.5433
lfingers 7.12502
lthumb 27.6443 60.5322
rfemur -25.2661 0.280489 14.8589
rtibia 42.3535
rfoot -19.1329 -11.1159
rtoes -12.9604
lfemur -23.8566 0.78987 -22.2113
ltibia 40.443
lfoot -19.7826 6.54859
ltoes -12.2593
3508
root 0.252116 17.4393 -1.99375 3.56151 -1.02936 2.5025
lowerback 12.5341 2.77262 -1.13148
upperback 4.96751 3.52107 -0.0457315
thorax -1.87681 1.74027 0.099009
lowerneck -3.03283 -5.2111 -5.55833
upperneck 1.89251 -6.84655 4.43237
head 1.49314 -3.39654 2.19516
rclavicle -3.3197e-014 1.94809e-014
rhumerus 44.9179 -4.05112 -71.1921
rradius 37.1067
rwrist -66.3687
rhand -4.09066 9.40331
rfingers 7.12502
rthumb 21.6669 -19.4043
lclavicle -3.3197e-014 1.94809e-014
lhumerus 45.1756 -12.9598 64.0422
lradius 49.0433
lwrist 67.5299
lhand 2.06464 32.5545
lfingers 7.12502
lthumb 27.5664 60.5558
rfemur -25.4033 0.252113 14.8041
rtibia 42.5747
rfoot -19.1253 -11.1826
rtoes -13.0291
lfemur -23.9658 0.783466 -22.2687
ltibia 40.6298
lfoot -19.816 6.54282
ltoes -12.21
3509
root 0.249558 17.4289 -1.99818 3.55543 -1.08075 2.6191
lowerback 12.5251 2.77332 -1.25606
upperback 5.12464 3.50711 -0.0914495
thorax -1.71206 1.73166 0.128644
lowerneck -3.12153 -5.19353 -5.56119
upperneck 1.88571 -6.81949 4.46659
head 1.50687 -3.38159 2.20571
rclavicle 8.54774e-015 1.98785e-015
rhumerus 44.7217 -4.03759 -71.3326
rradius 36.8533
rwrist -66.1758
rhand -4.1697 9.3174
rfingers 7.12502
rthumb 21.591 -19.499
lclavicle 8.54774e-015 1.98785e-015
lhumerus 44.7948 -13.0689 63.9047
lradius 49.0557
lwrist 67.3396
lhand 2.11789 32.5315
lfingers 7.12502
lthumb 27.6173 60.5247
rfemur -25.5539 0.225428 14.6867
rtibia 42.7884
rfoot -19.1825 -11.1551
rtoes -13.1999
lfemur -24.0697 0.839714 -22.4019
ltibia 40.8287
lfoot -19.8099 6.58727
ltoes -12.5286
